<svg width="37" height="30" viewBox="0 0 37 30" fill="none" xmlns="http://www.w3.org/2000/svg">
<path d="M36.1675 3.35485C35.5905 3.60225 34.9973 3.81105 34.3912 3.98056C35.1088 3.19599 35.6559 2.27284 35.9899 1.26264C36.0648 1.0362 35.9871 0.788346 35.7946 0.640252C35.6023 0.492043 35.3352 0.47429 35.1235 0.595583C33.8362 1.33365 32.4475 1.86406 30.9913 2.17422C29.5245 0.788575 27.5322 0 25.4726 0C21.1252 0 17.5882 3.41922 17.5882 7.62197C17.5882 7.95298 17.6099 8.28216 17.6528 8.60675C12.258 8.14884 7.24261 5.58542 3.79854 1.50121C3.6758 1.35564 3.48671 1.27718 3.29313 1.29219C3.09942 1.30685 2.92538 1.41245 2.82752 1.57474C2.12899 2.7335 1.7597 4.05878 1.7597 5.40721C1.7597 7.24378 2.43797 8.98632 3.63611 10.3479C3.2718 10.2259 2.91827 10.0735 2.58085 9.89241C2.39971 9.79494 2.17863 9.79643 1.99867 9.89619C1.81859 9.99595 1.70568 10.1794 1.70094 10.38C1.70011 10.4138 1.70011 10.4476 1.70011 10.4818C1.70011 13.2232 3.22631 15.6913 5.55967 17.0365C5.35921 17.0172 5.15887 16.9891 4.95983 16.9524C4.75463 16.9144 4.54363 16.984 4.40525 17.1353C4.26664 17.2865 4.22079 17.4972 4.28464 17.6896C5.14833 20.2964 7.37199 22.2139 10.0602 22.7985C7.8306 24.1485 5.2809 24.8556 2.60431 24.8556C2.04582 24.8556 1.48413 24.8239 0.934406 24.761C0.661321 24.7296 0.400202 24.8855 0.307199 25.1366C0.214196 25.3878 0.312768 25.6678 0.545097 25.8118C3.9836 27.9432 7.9595 29.0697 12.0427 29.0697C20.0699 29.0697 25.0915 25.4103 27.8904 22.3404C31.3807 18.5126 33.3825 13.4459 33.3825 8.43964C33.3825 8.2305 33.3792 8.0193 33.3725 7.80878C34.7496 6.8058 35.9351 5.59195 36.8999 4.1968C37.0464 3.98491 37.0306 3.70487 36.8608 3.50982C36.6912 3.31465 36.4087 3.25154 36.1675 3.35485Z" fill="url(#paint0_linear_1_631)"/>
<defs>
<linearGradient id="paint0_linear_1_631" x1="5.65119" y1="24.8125" x2="25.657" y2="-0.463349" gradientUnits="userSpaceOnUse">
<stop offset="0.03" stop-color="#A98D58"/>
<stop offset="0.1" stop-color="#B7995F"/>
<stop offset="0.22" stop-color="#DDB771"/>
<stop offset="0.31" stop-color="#FACF7F"/>
<stop offset="0.5" stop-color="#FCE88C"/>
<stop offset="0.63" stop-color="#FDFA96"/>
<stop offset="0.75" stop-color="#F6E18E"/>
<stop offset="1" stop-color="#E6A37B"/>
</linearGradient>
</defs>
</svg>
