<svg width="31" height="23" viewBox="0 0 31 23" fill="none" xmlns="http://www.w3.org/2000/svg">
<path d="M25.9263 1.9998C23.9191 1.09191 21.7957 0.446647 19.6122 0.0810547C19.3398 0.555934 19.0231 1.1965 18.8027 1.70393C16.4834 1.3622 14.1239 1.3622 11.8047 1.70393C11.5614 1.14944 11.2882 0.607728 10.9859 0.0810547C8.80055 0.44725 6.67555 1.09403 4.66733 2.00424C0.671722 7.84185 -0.411731 13.5345 0.129995 19.1458C2.46241 20.8482 5.08297 22.1462 7.87484 22.9818C8.50213 22.1472 9.05697 21.264 9.53369 20.3411C8.62695 20.007 7.75276 19.5956 6.92147 19.1117C7.1403 18.9549 7.35454 18.7907 7.56113 18.6221C12.5973 20.8988 18.0682 20.8988 23.0447 18.6221C23.2544 18.7907 23.4686 18.9549 23.6844 19.1117C22.8565 19.594 21.9796 20.0082 21.0676 20.3426C21.5435 21.2659 22.0983 22.1492 22.7264 22.9833C25.5205 22.1482 28.1428 20.8491 30.4758 19.1443C31.1109 12.6409 29.3909 7.00009 25.9263 1.9998ZM10.2193 15.6944C8.70733 15.6944 7.46778 14.3304 7.46778 12.6691C7.46778 11.0077 8.68131 9.64077 10.2193 9.64077C11.7572 9.64077 12.9968 11.0048 12.9707 12.6691C12.9723 14.3304 11.7572 15.6944 10.2193 15.6944ZM20.3866 15.6944C18.8746 15.6944 17.6351 14.3304 17.6351 12.6691C17.6351 11.0077 18.8486 9.64077 20.3866 9.64077C21.9245 9.64077 23.1641 11.0048 23.1381 12.6691C23.1381 14.3304 21.9245 15.6944 20.3866 15.6944Z" fill="url(#paint0_linear_1_632)"/>
<defs>
<linearGradient id="paint0_linear_1_632" x1="4.48222" y1="19.6292" x2="20.0187" y2="-1.13321" gradientUnits="userSpaceOnUse">
<stop offset="0.03" stop-color="#A98D58"/>
<stop offset="0.1" stop-color="#B7995F"/>
<stop offset="0.22" stop-color="#DDB771"/>
<stop offset="0.31" stop-color="#FACF7F"/>
<stop offset="0.5" stop-color="#FCE88C"/>
<stop offset="0.63" stop-color="#FDFA96"/>
<stop offset="0.75" stop-color="#F6E18E"/>
<stop offset="1" stop-color="#E6A37B"/>
</linearGradient>
</defs>
</svg>
